<?xml version="1.0" encoding="UTF-8"?> <svg xmlns="http://www.w3.org/2000/svg" xmlns:xlink="http://www.w3.org/1999/xlink" width="250px" height="83px" viewBox="0 0 250 83"><!-- Generator: Sketch 53.2 (72643) - https://sketchapp.com --><title>Logo</title><desc>Created with Sketch.</desc><defs><path d="M26.4807692,13.1138462 C30.34,13.1138462 33.4807692,16.2546154 33.4807692,20.1138462 L33.4807692,20.1138462 C33.4807692,23.9738462 30.34,27.1138462 26.4807692,27.1138462 L26.4807692,27.1138462 L0.06,27.1138462 L0.06,39.5469231 L26.4807692,39.5469231 C37.1961538,39.5469231 45.9138462,30.83 45.9138462,20.1138462 L45.9138462,20.1138462 C45.9138462,9.39846154 37.1961538,0.680769231 26.4807692,0.680769231 L26.4807692,0.680769231 L26.4807692,13.1138462 Z" id="path-1"></path><linearGradient x1="0.000216071129%" y1="50.0005714%" x2="99.9993724%" y2="50.0005714%" id="linearGradient-3"><stop stop-color="#EB5B26" offset="0%"></stop><stop stop-color="#F9AF3D" offset="100%"></stop></linearGradient><path d="M19.4330769,0.693846154 C8.71769231,0.693846154 0,9.41076923 0,20.1261538 L0,20.1261538 C0,30.8415385 8.71769231,39.5592308 19.4330769,39.5592308 L19.4330769,39.5592308 L19.4330769,27.1261538 C15.5730769,27.1261538 12.4330769,23.9861538 12.4330769,20.1261538 L12.4330769,20.1261538 C12.4330769,16.2661538 15.5730769,13.1269231 19.4330769,13.1269231 L19.4330769,13.1269231 L45.8538462,13.1269231 L45.8538462,0.693846154 L19.4330769,0.693846154 Z" id="path-4"></path><linearGradient x1="99.9991563%" y1="49.9991491%" x2="0%" y2="49.9991491%" id="linearGradient-6"><stop stop-color="#EB5B26" offset="0%"></stop><stop stop-color="#F9AF3D" offset="100%"></stop></linearGradient><path d="M0.440769231,19.6730769 L12.8738462,19.6730769 C12.8738462,15.8138462 16.0146154,12.6738462 19.8738462,12.6738462 L19.8738462,12.6738462 C23.7330769,12.6738462 26.8730769,15.8138462 26.8730769,19.6730769 L26.8730769,19.6730769 L26.8730769,46.0938462 L39.3061538,46.0938462 L39.3061538,19.6730769 C39.3061538,8.95769231 30.5892308,0.240769231 19.8738462,0.240769231 L19.8738462,0.240769231 C9.15846154,0.240769231 0.440769231,8.95769231 0.440769231,19.6730769" id="path-7"></path><linearGradient x1="50.0008281%" y1="99.9997776%" x2="50.0008281%" y2="-0.00107550873%" id="linearGradient-9"><stop stop-color="#EB5B26" offset="0%"></stop><stop stop-color="#F9AF3D" offset="100%"></stop></linearGradient><path d="M0.440769231,0.3 L0.440769231,26.7207692 C0.440769231,37.4361538 9.15846154,46.1538462 19.8738462,46.1538462 L19.8738462,46.1538462 C30.5892308,46.1538462 39.3061538,37.4361538 39.3061538,26.7207692 L39.3061538,26.7207692 L26.8730769,26.7207692 C26.8730769,30.5807692 23.7330769,33.7207692 19.8738462,33.7207692 L19.8738462,33.7207692 C16.0146154,33.7207692 12.8738462,30.5807692 12.8738462,26.7207692 L12.8738462,26.7207692 L12.8738462,0.3 L0.440769231,0.3 Z" id="path-10"></path><linearGradient x1="50.0008281%" y1="0.000824526086%" x2="50.0008281%" y2="100%" id="linearGradient-12"><stop stop-color="#EB5B26" offset="0%"></stop><stop stop-color="#F9AF3D" offset="100%"></stop></linearGradient></defs><g id="Page-1" stroke="none" stroke-width="1" fill="none" fill-rule="evenodd"><g id="Logo"><g id="Group-3" transform="translate(35.384615, 21.298462)"><g id="Fill-1-Clipped"><mask id="mask-2" fill="white"><use xlink:href="#path-1"></use></mask><g id="path-1"></g><path d="M26.4807692,13.1138462 C30.34,13.1138462 33.4807692,16.2546154 33.4807692,20.1138462 L33.4807692,20.1138462 C33.4807692,23.9738462 30.34,27.1138462 26.4807692,27.1138462 L26.4807692,27.1138462 L0.06,27.1138462 L0.06,39.5469231 L26.4807692,39.5469231 C37.1961538,39.5469231 45.9138462,30.83 45.9138462,20.1138462 L45.9138462,20.1138462 C45.9138462,9.39846154 37.1961538,0.680769231 26.4807692,0.680769231 L26.4807692,0.680769231 L26.4807692,13.1138462 Z" id="Fill-1" fill="url(#linearGradient-3)" fill-rule="nonzero" mask="url(#mask-2)"></path></g></g><g id="Group-6" transform="translate(0.000000, 21.298462)"><g id="Fill-4-Clipped"><mask id="mask-5" fill="white"><use xlink:href="#path-4"></use></mask><g id="path-4"></g><path d="M19.4330769,0.693846154 C8.71769231,0.693846154 0,9.41076923 0,20.1261538 L0,20.1261538 C0,30.8415385 8.71769231,39.5592308 19.4330769,39.5592308 L19.4330769,39.5592308 L19.4330769,27.1261538 C15.5730769,27.1261538 12.4330769,23.9861538 12.4330769,20.1261538 L12.4330769,20.1261538 C12.4330769,16.2661538 15.5730769,13.1269231 19.4330769,13.1269231 L19.4330769,13.1269231 L45.8538462,13.1269231 L45.8538462,0.693846154 L19.4330769,0.693846154 Z" id="Fill-4" fill="url(#linearGradient-6)" fill-rule="nonzero" mask="url(#mask-5)"></path></g></g><g id="Group-9" transform="translate(20.769231, 0.529231)"><g id="Fill-7-Clipped"><mask id="mask-8" fill="white"><use xlink:href="#path-7"></use></mask><g id="path-7"></g><path d="M0.440769231,19.6730769 L12.8738462,19.6730769 C12.8738462,15.8138462 16.0146154,12.6738462 19.8738462,12.6738462 L19.8738462,12.6738462 C23.7330769,12.6738462 26.8730769,15.8138462 26.8730769,19.6730769 L26.8730769,19.6730769 L26.8730769,46.0938462 L39.3061538,46.0938462 L39.3061538,19.6730769 C39.3061538,8.95769231 30.5892308,0.240769231 19.8738462,0.240769231 L19.8738462,0.240769231 C9.15846154,0.240769231 0.440769231,8.95769231 0.440769231,19.6730769" id="Fill-7" fill="url(#linearGradient-9)" fill-rule="nonzero" mask="url(#mask-8)"></path></g></g><g id="Group-12" transform="translate(20.769231, 35.913846)"><g id="Fill-10-Clipped"><mask id="mask-11" fill="white"><use xlink:href="#path-10"></use></mask><g id="path-10"></g><path d="M0.440769231,0.3 L0.440769231,26.7207692 C0.440769231,37.4361538 9.15846154,46.1538462 19.8738462,46.1538462 L19.8738462,46.1538462 C30.5892308,46.1538462 39.3061538,37.4361538 39.3061538,26.7207692 L39.3061538,26.7207692 L26.8730769,26.7207692 C26.8730769,30.5807692 23.7330769,33.7207692 19.8738462,33.7207692 L19.8738462,33.7207692 C16.0146154,33.7207692 12.8738462,30.5807692 12.8738462,26.7207692 L12.8738462,26.7207692 L12.8738462,0.3 L0.440769231,0.3 Z" id="Fill-10" fill="url(#linearGradient-12)" fill-rule="nonzero" mask="url(#mask-11)"></path></g></g><g id="Group-70" transform="translate(90.769231, 21.298462)" fill="#FFFFFF" fill-rule="nonzero"><polygon id="Fill-13" points="0.54 50.8946154 1.14384615 50.8946154 1.14384615 44.8869231 0.54 44.8869231"></polygon><path d="M7.02415385,50.8943846 L3.52953846,45.6166923 C3.55646154,45.9582308 3.56569231,46.2466923 3.56569231,46.5620769 L3.57492308,47.2913077 L3.57492308,48.0297692 L3.57492308,50.8943846 L3.03415385,50.8943846 L3.03415385,44.8866923 L3.65569231,44.8866923 L7.15030769,50.1466923 C7.12338462,49.6605385 7.10492308,48.4443846 7.10492308,47.679 L7.10492308,44.8866923 L7.64569231,44.8866923 L7.64569231,50.8943846 L7.02415385,50.8943846 Z" id="Fill-15"></path><polygon id="Fill-16" points="11.4626923 50.8943846 10.8588462 50.8943846 10.8588462 45.4005385 8.94961538 45.4005385 8.94961538 44.8866923 13.3719231 44.8866923 13.3719231 45.4005385 11.4626923 45.4005385"></polygon><polygon id="Fill-17" points="18.6843077 45.4004615 15.2712308 45.4004615 15.2712308 47.5704615 18.4050769 47.5704615 18.4050769 48.0481538 15.2712308 48.0481538 15.2712308 50.3812308 18.7566154 50.3812308 18.7566154 50.8943077 14.6673846 50.8943077 14.6673846 44.8873846 18.6843077 44.8873846"></polygon><path d="M22.7175385,47.6968462 C23.2667692,47.6968462 23.5644615,47.6160769 23.7898462,47.4083846 C24.0152308,47.2106923 24.1321538,46.9045385 24.1321538,46.5437692 C24.1321538,46.1922308 24.0152308,45.8860769 23.7898462,45.6883846 C23.5644615,45.4814615 23.276,45.4006923 22.7175385,45.4006923 L20.9075385,45.4006923 L20.9075385,47.6968462 L22.7175385,47.6968462 Z M20.9075385,50.8945385 L20.3036923,50.8945385 L20.3036923,44.8868462 L22.826,44.8868462 C23.5106154,44.8868462 23.8883077,44.9860769 24.2221538,45.2560769 C24.5552308,45.5260769 24.7175385,45.9314615 24.7175385,46.463 C24.7175385,47.1837692 24.4383077,47.6160769 23.7713846,47.9214615 C24.2667692,48.1291538 24.4829231,48.5076154 24.5375385,49.2553077 L24.5913846,50.0383846 C24.6267692,50.4983846 24.6990769,50.6606923 24.9606154,50.8945385 L24.1683077,50.8945385 C24.0690769,50.6691538 24.0329231,50.4983846 24.006,50.2099231 L23.9513846,49.5253077 C23.8706154,48.4891538 23.5913846,48.1745385 22.7713846,48.1745385 L20.9075385,48.1745385 L20.9075385,50.8945385 Z" id="Fill-18"></path><path d="M30.5247692,50.8943846 L27.0301538,45.6166923 C27.0570769,45.9582308 27.0663077,46.2466923 27.0663077,46.5620769 L27.0755385,47.2913077 L27.0755385,48.0297692 L27.0755385,50.8943846 L26.5347692,50.8943846 L26.5347692,44.8866923 L27.1563077,44.8866923 L30.6509231,50.1466923 C30.624,49.6605385 30.6055385,48.4443846 30.6055385,47.679 L30.6055385,44.8866923 L31.1463077,44.8866923 L31.1463077,50.8943846 L30.5247692,50.8943846 Z" id="Fill-19"></path><path d="M35.0984615,45.5082308 L33.9815385,48.5251538 L36.2515385,48.5251538 L35.0984615,45.5082308 Z M33.8015385,49.0028462 L33.09,50.8943846 L32.4776923,50.8943846 L34.8007692,44.8866923 L35.4315385,44.8866923 L37.8007692,50.8943846 L37.1792308,50.8943846 L36.44,49.0028462 L33.8015385,49.0028462 Z" id="Fill-20"></path><polygon id="Fill-21" points="40.3565385 50.8943846 39.7526923 50.8943846 39.7526923 45.4005385 37.8434615 45.4005385 37.8434615 44.8866923 42.2657692 44.8866923 42.2657692 45.4005385 40.3565385 45.4005385"></polygon><polygon id="Fill-22" points="43.5615385 50.8946154 44.1646154 50.8946154 44.1646154 44.8869231 43.5615385 44.8869231"></polygon><path d="M46.9475385,46.0487692 C46.596,46.4903077 46.4067692,47.1387692 46.4067692,47.8864615 C46.4067692,49.4718462 47.2713846,50.5164615 48.5867692,50.5164615 C49.8929231,50.5164615 50.766,49.4718462 50.766,47.9218462 C50.766,47.1387692 50.586,46.508 50.226,46.0487692 C49.8475385,45.5626154 49.226,45.2649231 48.5775385,45.2649231 C47.9383077,45.2649231 47.3436923,45.5533846 46.9475385,46.0487692 M51.3698462,47.9310769 C51.3698462,49.768 50.2344615,51.0295385 48.5867692,51.0295385 C46.9206154,51.0295385 45.8036923,49.768 45.8036923,47.8864615 C45.8036923,46.0126154 46.9206154,44.7518462 48.5775385,44.7518462 C50.2713846,44.7518462 51.3698462,45.9949231 51.3698462,47.9310769" id="Fill-23"></path><path d="M56.9967692,50.8943846 L53.5029231,45.6166923 C53.5290769,45.9582308 53.5383077,46.2466923 53.5383077,46.5620769 L53.5475385,47.2913077 L53.5475385,48.0297692 L53.5475385,50.8943846 L53.0067692,50.8943846 L53.0067692,44.8866923 L53.6283077,44.8866923 L57.1229231,50.1466923 C57.096,49.6605385 57.0775385,48.4443846 57.0775385,47.679 L57.0775385,44.8866923 L57.6183077,44.8866923 L57.6183077,50.8943846 L56.9967692,50.8943846 Z" id="Fill-24"></path><path d="M61.5704615,45.5082308 L60.4535385,48.5251538 L62.7235385,48.5251538 L61.5704615,45.5082308 Z M60.2727692,49.0028462 L59.562,50.8943846 L58.9489231,50.8943846 L61.2727692,44.8866923 L61.9035385,44.8866923 L64.272,50.8943846 L63.6512308,50.8943846 L62.912,49.0028462 L60.2727692,49.0028462 Z" id="Fill-25"></path><polygon id="Fill-26" points="66.1617692 50.3813077 69.0533077 50.3813077 69.0533077 50.8943846 65.5579231 50.8943846 65.5579231 44.8866923 66.1617692 44.8866923"></polygon><polygon id="Fill-27" points="73.5261538 50.8946154 74.13 50.8946154 74.13 44.8869231 73.5261538 44.8869231"></polygon><path d="M80.011,50.8943846 L76.5163846,45.6166923 C76.5433077,45.9582308 76.5517692,46.2466923 76.5517692,46.5620769 L76.561,47.2913077 L76.561,48.0297692 L76.561,50.8943846 L76.021,50.8943846 L76.021,44.8866923 L76.6425385,44.8866923 L80.1371538,50.1466923 C80.1102308,49.6605385 80.0917692,48.4443846 80.0917692,47.679 L80.0917692,44.8866923 L80.6325385,44.8866923 L80.6325385,50.8943846 L80.011,50.8943846 Z" id="Fill-28"></path><path d="M85.8902308,46.5531538 C85.8540769,45.7154615 85.3133077,45.2654615 84.3586923,45.2654615 C83.4671538,45.2654615 82.9002308,45.7154615 82.9002308,46.4177692 C82.9002308,46.9493077 83.1971538,47.2377692 83.8902308,47.3816154 L85.0163846,47.6254615 C85.6017692,47.7508462 85.9440769,47.9039231 86.2056154,48.147 C86.4848462,48.427 86.6286923,48.787 86.6286923,49.2185385 C86.6286923,50.3085385 85.7548462,51.0293077 84.4317692,51.0293077 C83.6025385,51.0293077 82.9633077,50.7593077 82.5579231,50.2454615 C82.2963846,49.9031538 82.1794615,49.5162308 82.161,48.9039231 L82.7648462,48.9039231 C82.7833077,49.9485385 83.3686923,50.5162308 84.4579231,50.5162308 C85.4125385,50.5162308 86.0256154,50.0300769 86.0256154,49.2639231 C86.0256154,48.6693077 85.6740769,48.3546923 84.7825385,48.1654615 L83.7017692,47.9308462 C82.7471538,47.7239231 82.2963846,47.2377692 82.2963846,46.4177692 C82.2963846,45.3916154 83.0886923,44.7516154 84.3771538,44.7516154 C85.6925385,44.7516154 86.4217692,45.3731538 86.4940769,46.5531538 L85.8902308,46.5531538 Z" id="Fill-29"></path><polygon id="Fill-30" points="90.0586923 50.8943846 89.4556154 50.8943846 89.4556154 45.4005385 87.5463846 45.4005385 87.5463846 44.8866923 91.9679231 44.8866923 91.9679231 45.4005385 90.0586923 45.4005385"></polygon><polygon id="Fill-31" points="93.2630769 50.8946154 93.8669231 50.8946154 93.8669231 44.8869231 93.2630769 44.8869231"></polygon><polygon id="Fill-32" points="97.6848462 50.8943846 97.0817692 50.8943846 97.0817692 45.4005385 95.1725385 45.4005385 95.1725385 44.8866923 99.5940769 44.8866923 99.5940769 45.4005385 97.6848462 45.4005385"></polygon><path d="M105.321615,44.887 L105.321615,48.7685385 C105.321615,49.5431538 105.177,49.9846923 104.799308,50.3716154 C104.403154,50.777 103.817,50.9846923 103.105462,50.9846923 C102.393923,50.9846923 101.817769,50.7685385 101.412385,50.3716154 C101.034692,49.9846923 100.890077,49.5431538 100.890077,48.7685385 L100.890077,44.887 L101.493154,44.887 L101.493154,48.8139231 C101.493154,49.3454615 101.592385,49.6877692 101.808538,49.9485385 C102.097,50.2908462 102.556231,50.4708462 103.105462,50.4708462 C103.654692,50.4708462 104.114692,50.2908462 104.403154,49.9485385 C104.618538,49.6877692 104.717769,49.3454615 104.717769,48.8139231 L104.717769,44.887 L105.321615,44.887 Z" id="Fill-33"></path><polygon id="Fill-34" points="109.138077 50.8943846 108.535 50.8943846 108.535 45.4005385 106.625769 45.4005385 106.625769 44.8866923 111.047308 44.8866923 111.047308 45.4005385 109.138077 45.4005385"></polygon><polygon id="Fill-35" points="116.360462 45.4004615 112.946615 45.4004615 112.946615 47.5704615 116.081231 47.5704615 116.081231 48.0481538 112.946615 48.0481538 112.946615 50.3812308 116.432769 50.3812308 116.432769 50.8943077 112.342769 50.8943077 112.342769 44.8873846 116.360462 44.8873846"></polygon><polygon id="Fill-36" points="124.940692 45.4004615 121.734538 45.4004615 121.734538 47.5350769 124.535308 47.5350769 124.535308 48.0481538 121.734538 48.0481538 121.734538 50.8943077 121.130692 50.8943077 121.130692 44.8873846 124.940692 44.8873846"></polygon><path d="M127.137231,46.0487692 C126.785692,46.4903077 126.596462,47.1387692 126.596462,47.8864615 C126.596462,49.4718462 127.461846,50.5164615 128.776462,50.5164615 C130.082615,50.5164615 130.955692,49.4718462 130.955692,47.9218462 C130.955692,47.1387692 130.775692,46.508 130.415692,46.0487692 C130.037231,45.5626154 129.415692,45.2649231 128.767231,45.2649231 C128.128,45.2649231 127.533385,45.5533846 127.137231,46.0487692 M131.559538,47.9310769 C131.559538,49.768 130.424923,51.0295385 128.776462,51.0295385 C127.110308,51.0295385 125.993385,49.768 125.993385,47.8864615 C125.993385,46.0126154 127.110308,44.7518462 128.767231,44.7518462 C130.461077,44.7518462 131.559538,45.9949231 131.559538,47.9310769" id="Fill-37"></path><path d="M135.610385,47.6968462 C136.159615,47.6968462 136.457308,47.6160769 136.681923,47.4083846 C136.907308,47.2106923 137.024231,46.9045385 137.024231,46.5437692 C137.024231,46.1922308 136.907308,45.8860769 136.681923,45.6883846 C136.457308,45.4814615 136.168846,45.4006923 135.610385,45.4006923 L133.799615,45.4006923 L133.799615,47.6968462 L135.610385,47.6968462 Z M133.799615,50.8945385 L133.196538,50.8945385 L133.196538,44.8868462 L135.718846,44.8868462 C136.402692,44.8868462 136.781154,44.9860769 137.114231,45.2560769 C137.448077,45.5260769 137.610385,45.9314615 137.610385,46.463 C137.610385,47.1837692 137.330385,47.6160769 136.664231,47.9214615 C137.159615,48.1291538 137.375769,48.5076154 137.429615,49.2553077 L137.483462,50.0383846 C137.519615,50.4983846 137.591923,50.6606923 137.853462,50.8945385 L137.060385,50.8945385 C136.961154,50.6691538 136.925,50.4983846 136.898077,50.2099231 L136.844231,49.5253077 C136.763462,48.4891538 136.484231,48.1745385 135.664231,48.1745385 L133.799615,48.1745385 L133.799615,50.8945385 Z" id="Fill-38"></path><path d="M4.77323077,55.5935385 C4.56630769,54.7643077 3.89092308,54.2689231 2.98092308,54.2689231 C1.69323077,54.2689231 0.891692308,55.2873846 0.891692308,56.9258462 C0.891692308,58.5112308 1.69323077,59.5204615 2.96323077,59.5204615 C3.98938462,59.5204615 4.71938462,58.8450769 4.89015385,57.7458462 L5.47630769,57.7458462 C5.25938462,59.1966154 4.34092308,60.0335385 2.954,60.0335385 C1.30553846,60.0335385 0.287846154,58.8358462 0.287846154,56.8996923 C0.287846154,54.9627692 1.33246154,53.7558462 3.00784615,53.7558462 C4.25092308,53.7558462 5.15169231,54.4496923 5.39476923,55.5935385 L4.77323077,55.5935385 Z" id="Fill-39"></path><path d="M7.89669231,55.053 C7.54515385,55.4945385 7.35592308,56.143 7.35592308,56.8906923 C7.35592308,58.4753077 8.22053846,59.5206923 9.53592308,59.5206923 C10.8420769,59.5206923 11.7151538,58.4753077 11.7151538,56.9260769 C11.7151538,56.143 11.5351538,55.5122308 11.1751538,55.053 C10.7966923,54.5668462 10.1751538,54.2691538 9.52669231,54.2691538 C8.88746154,54.2691538 8.29284615,54.5576154 7.89669231,55.053 M12.319,56.9353077 C12.319,58.7722308 11.1843846,60.0337692 9.53592308,60.0337692 C7.86976923,60.0337692 6.75284615,58.7722308 6.75284615,56.8906923 C6.75284615,55.0168462 7.86976923,53.7560769 9.52669231,53.7560769 C11.2205385,53.7560769 12.319,54.9991538 12.319,56.9353077" id="Fill-40"></path><path d="M16.433,59.8986154 L14.4691538,54.684 C14.5060769,55.7109231 14.5237692,56.8816923 14.5237692,57.9170769 L14.5237692,59.8986154 L13.9560769,59.8986154 L13.9560769,53.8909231 L14.713,53.8909231 L16.7214615,59.2501538 L18.7476154,53.8909231 L19.4776154,53.8909231 L19.4776154,59.8986154 L18.9099231,59.8986154 L18.9099231,58.304 C18.9099231,56.8724615 18.9283846,55.4486154 18.9545385,54.7463077 L16.9914615,59.8986154 L16.433,59.8986154 Z" id="Fill-41"></path><path d="M23.8432308,59.8986154 L21.8801538,54.684 C21.9163077,55.7109231 21.934,56.8816923 21.934,57.9170769 L21.934,59.8986154 L21.3663077,59.8986154 L21.3663077,53.8909231 L22.1232308,53.8909231 L24.1316923,59.2501538 L26.1578462,53.8909231 L26.8878462,53.8909231 L26.8878462,59.8986154 L26.3201538,59.8986154 L26.3201538,58.304 C26.3201538,56.8724615 26.3386154,55.4486154 26.3655385,54.7463077 L24.4016923,59.8986154 L23.8432308,59.8986154 Z" id="Fill-42"></path><path d="M33.2084615,53.8909231 L33.2084615,57.7732308 C33.2084615,58.5478462 33.0638462,58.9886154 32.6853846,59.3763077 C32.29,59.7816923 31.7038462,59.9886154 30.9923077,59.9886154 C30.2807692,59.9886154 29.7046154,59.7724615 29.2992308,59.3763077 C28.9207692,58.9886154 28.7769231,58.5478462 28.7769231,57.7732308 L28.7769231,53.8909231 L29.38,53.8909231 L29.38,57.8178462 C29.38,58.3493846 29.4792308,58.6916923 29.6953846,58.9532308 C29.9838462,59.2947692 30.4430769,59.4747692 30.9923077,59.4747692 C31.5415385,59.4747692 32.0015385,59.2947692 32.29,58.9532308 C32.5053846,58.6916923 32.6046154,58.3493846 32.6046154,57.8178462 L32.6046154,53.8909231 L33.2084615,53.8909231 Z" id="Fill-43"></path><path d="M39.0880769,59.8986154 L35.5934615,54.6209231 C35.6203846,54.9624615 35.6288462,55.2509231 35.6288462,55.5663077 L35.6380769,56.2955385 L35.6380769,57.034 L35.6380769,59.8986154 L35.0980769,59.8986154 L35.0980769,53.8909231 L35.7196154,53.8909231 L39.2142308,59.1509231 C39.1865385,58.6647692 39.1688462,57.4486154 39.1688462,56.6832308 L39.1688462,53.8909231 L39.7096154,53.8909231 L39.7096154,59.8986154 L39.0880769,59.8986154 Z" id="Fill-44"></path><polygon id="Fill-45" points="41.5984615 59.8984615 42.2023077 59.8984615 42.2023077 53.8907692 41.5984615 53.8907692"></polygon><polygon id="Fill-46" points="46.0202308 59.8986154 45.4171538 59.8986154 45.4171538 54.404 43.5071538 54.404 43.5071538 53.8909231 47.9294615 53.8909231 47.9294615 54.404 46.0202308 54.404"></polygon><polygon id="Fill-47" points="51.7109231 59.8986154 51.1432308 59.8986154 51.1432308 57.2686154 48.8555385 53.8909231 49.5586154 53.8909231 51.4316923 56.7370769 53.2778462 53.8909231 53.9709231 53.8909231 51.7109231 57.2686154"></polygon><path d="M60.832,59.3852308 C61.7773846,59.3852308 62.2104615,59.0067692 62.2104615,58.196 C62.2104615,57.3944615 61.7773846,57.016 60.832,57.016 L58.8681538,57.016 L58.8681538,59.3852308 L60.832,59.3852308 Z M60.6612308,56.5390769 C61.1743077,56.5390769 61.472,56.4398462 61.6966154,56.206 C61.8673846,56.0252308 61.9666154,55.7644615 61.9666154,55.4675385 C61.9666154,55.1790769 61.8673846,54.9175385 61.6966154,54.7375385 C61.472,54.5036923 61.1743077,54.4044615 60.6612308,54.4044615 L58.8681538,54.4044615 L58.8681538,56.5390769 L60.6612308,56.5390769 Z M58.3004615,53.8913846 L60.7327692,53.8913846 C61.3812308,53.8913846 61.7596923,53.9990769 62.0658462,54.2598462 C62.3627692,54.5306154 62.5343077,54.9267692 62.5343077,55.3952308 C62.5343077,56.0344615 62.2643077,56.4490769 61.6789231,56.7098462 C62.4350769,56.9444615 62.7950769,57.4129231 62.7950769,58.196 C62.7950769,58.7190769 62.6066154,59.1783077 62.2643077,59.4752308 C61.922,59.7813846 61.4981538,59.8983077 60.7689231,59.8983077 L58.3004615,59.8983077 L58.3004615,53.8913846 Z" id="Fill-48"></path><path d="M66.3604615,54.5125385 L65.2435385,57.5294615 L67.5135385,57.5294615 L66.3604615,54.5125385 Z M65.0635385,58.0071538 L64.352,59.8986923 L63.7396923,59.8986923 L66.0635385,53.891 L66.6943077,53.891 L69.0627692,59.8986923 L68.4412308,59.8986923 L67.7027692,58.0071538 L65.0635385,58.0071538 Z" id="Fill-49"></path><path d="M73.6809231,55.5570769 C73.6447692,54.7193846 73.104,54.2693846 72.1493846,54.2693846 C71.2578462,54.2693846 70.6909231,54.7193846 70.6909231,55.4224615 C70.6909231,55.954 70.9878462,56.2416923 71.6809231,56.3863077 L72.8070769,56.6293846 C73.3924615,56.7555385 73.7347692,56.9086154 73.9963077,57.1516923 C74.2755385,57.4309231 74.4193846,57.7909231 74.4193846,58.2232308 C74.4193846,59.3132308 73.5455385,60.0332308 72.2224615,60.0332308 C71.3932308,60.0332308 70.754,59.7632308 70.3486154,59.2501538 C70.0870769,58.9078462 69.9701538,58.5209231 69.9516923,57.9086154 L70.5555385,57.9086154 C70.574,58.9532308 71.1593846,59.5201538 72.2486154,59.5201538 C73.2032308,59.5201538 73.8163077,59.034 73.8163077,58.2686154 C73.8163077,57.674 73.4647692,57.3586154 72.5732308,57.1693846 L71.4924615,56.9355385 C70.5378462,56.7278462 70.0870769,56.2416923 70.0870769,55.4224615 C70.0870769,54.3955385 70.8793846,53.7563077 72.1678462,53.7563077 C73.4832308,53.7563077 74.2124615,54.3770769 74.2847692,55.5570769 L73.6809231,55.5570769 Z" id="Fill-50"></path><polygon id="Fill-51" points="80.02 54.4043846 76.6069231 54.4043846 76.6069231 56.5751538 79.7415385 56.5751538 79.7415385 57.0520769 76.6069231 57.0520769 76.6069231 59.3851538 80.0923077 59.3851538 80.0923077 59.899 76.0030769 59.899 76.0030769 53.8913077 80.02 53.8913077"></polygon><path d="M83.5761538,59.3852308 C84.5130769,59.3852308 84.9723077,59.2052308 85.3415385,58.7006154 C85.6653846,58.2506154 85.8276923,57.6652308 85.8276923,56.8906154 C85.8276923,56.0529231 85.6384615,55.3683077 85.3053846,54.9721538 C84.9723077,54.576 84.5130769,54.4044615 83.8007692,54.4044615 L82.2430769,54.4044615 L82.2430769,59.3852308 L83.5761538,59.3852308 Z M81.6392308,53.8913846 L83.8369231,53.8913846 C84.8369231,53.8913846 85.4853846,54.1883077 85.9,54.8183077 C86.2515385,55.3590769 86.4315385,56.0529231 86.4315385,56.8721538 C86.4315385,57.7544615 86.2238462,58.4844615 85.8007692,59.0429231 C85.35,59.6467692 84.7469231,59.8983077 83.7107692,59.8983077 L81.6392308,59.8983077 L81.6392308,53.8913846 Z" id="Fill-52"></path><path d="M94.5793846,55.5570769 C94.5432308,54.7193846 94.0024615,54.2693846 93.0486154,54.2693846 C92.1563077,54.2693846 91.5893846,54.7193846 91.5893846,55.4224615 C91.5893846,55.954 91.8863077,56.2416923 92.5801538,56.3863077 L93.7055385,56.6293846 C94.2909231,56.7555385 94.6332308,56.9086154 94.8947692,57.1516923 C95.174,57.4309231 95.3178462,57.7909231 95.3178462,58.2232308 C95.3178462,59.3132308 94.444,60.0332308 93.1209231,60.0332308 C92.2916923,60.0332308 91.6524615,59.7632308 91.2470769,59.2501538 C90.9855385,58.9078462 90.8686154,58.5209231 90.8509231,57.9086154 L91.454,57.9086154 C91.4724615,58.9532308 92.0578462,59.5201538 93.1478462,59.5201538 C94.1016923,59.5201538 94.7147692,59.034 94.7147692,58.2686154 C94.7147692,57.674 94.3632308,57.3586154 93.4716923,57.1693846 L92.3909231,56.9355385 C91.4363077,56.7278462 90.9855385,56.2416923 90.9855385,55.4224615 C90.9855385,54.3955385 91.7778462,53.7563077 93.0663077,53.7563077 C94.3816923,53.7563077 95.1109231,54.3770769 95.1832308,55.5570769 L94.5793846,55.5570769 Z" id="Fill-53"></path><path d="M97.775,55.053 C97.4234615,55.4945385 97.2342308,56.143 97.2342308,56.8906923 C97.2342308,58.4753077 98.0996154,59.5206923 99.4142308,59.5206923 C100.720385,59.5206923 101.593462,58.4753077 101.593462,56.9260769 C101.593462,56.143 101.413462,55.5122308 101.053462,55.053 C100.675,54.5668462 100.053462,54.2691538 99.405,54.2691538 C98.7657692,54.2691538 98.1711538,54.5576154 97.775,55.053 M102.197308,56.9353077 C102.197308,58.7722308 101.061923,60.0337692 99.4142308,60.0337692 C97.7480769,60.0337692 96.6311538,58.7722308 96.6311538,56.8906923 C96.6311538,55.0168462 97.7480769,53.7560769 99.405,53.7560769 C101.098846,53.7560769 102.197308,54.9991538 102.197308,56.9353077" id="Fill-54"></path><path d="M108.067615,55.5935385 C107.859923,54.7643077 107.185308,54.2689231 106.274538,54.2689231 C104.987615,54.2689231 104.185308,55.2873846 104.185308,56.9258462 C104.185308,58.5112308 104.987615,59.5204615 106.256846,59.5204615 C107.283769,59.5204615 108.013769,58.8450769 108.184538,57.7458462 L108.769923,57.7458462 C108.553769,59.1966154 107.635308,60.0335385 106.248385,60.0335385 C104.599923,60.0335385 103.582231,58.8358462 103.582231,56.8996923 C103.582231,54.9627692 104.626846,53.7558462 106.302231,53.7558462 C107.545308,53.7558462 108.446077,54.4496923 108.689154,55.5935385 L108.067615,55.5935385 Z" id="Fill-55"></path><polygon id="Fill-56" points="110.281538 59.8984615 110.884615 59.8984615 110.884615 53.8907692 110.281538 53.8907692"></polygon><path d="M113.667077,55.053 C113.315538,55.4945385 113.126308,56.143 113.126308,56.8906923 C113.126308,58.4753077 113.990923,59.5206923 115.306308,59.5206923 C116.612462,59.5206923 117.485538,58.4753077 117.485538,56.9260769 C117.485538,56.143 117.305538,55.5122308 116.945538,55.053 C116.567077,54.5668462 115.945538,54.2691538 115.297077,54.2691538 C114.657846,54.2691538 114.063231,54.5576154 113.667077,55.053 M118.089385,56.9353077 C118.089385,58.7722308 116.954769,60.0337692 115.306308,60.0337692 C113.640154,60.0337692 112.523231,58.7722308 112.523231,56.8906923 C112.523231,55.0168462 113.640154,53.7560769 115.297077,53.7560769 C116.990923,53.7560769 118.089385,54.9991538 118.089385,56.9353077" id="Fill-57"></path><polygon id="Fill-58" points="121.356769 59.8986154 120.753692 59.8986154 120.753692 54.404 118.844462 54.404 118.844462 53.8909231 123.266 53.8909231 123.266 54.404 121.356769 54.404"></polygon><polygon id="Fill-59" points="125.164923 56.9716154 125.164923 59.8985385 124.561077 59.8985385 124.561077 53.8916154 125.164923 53.8916154 125.164923 56.4577692 128.452615 56.4577692 128.452615 53.8916154 129.055692 53.8916154 129.055692 59.8985385 128.452615 59.8985385 128.452615 56.9716154"></polygon><polygon id="Fill-60" points="134.962923 54.4043846 131.549077 54.4043846 131.549077 56.5751538 134.683692 56.5751538 134.683692 57.0520769 131.549077 57.0520769 131.549077 59.3851538 135.035231 59.3851538 135.035231 59.899 130.946 59.899 130.946 53.8913077 134.962923 53.8913077"></polygon><path d="M138.996077,56.7011538 C139.545308,56.7011538 139.843,56.6203846 140.067615,56.4126923 C140.293,56.215 140.409923,55.9080769 140.409923,55.5480769 C140.409923,55.1965385 140.293,54.8911538 140.067615,54.6926923 C139.843,54.4857692 139.554538,54.4042308 138.996077,54.4042308 L137.185308,54.4042308 L137.185308,56.7011538 L138.996077,56.7011538 Z M137.185308,59.8988462 L136.582231,59.8988462 L136.582231,53.8911538 L139.104538,53.8911538 C139.788385,53.8911538 140.166846,53.9903846 140.499923,54.2603846 C140.833769,54.5303846 140.996077,54.9357692 140.996077,55.4673077 C140.996077,56.1880769 140.716077,56.6203846 140.049923,56.9257692 C140.545308,57.1334615 140.761462,57.5119231 140.815308,58.2596154 L140.869154,59.0426923 C140.905308,59.5026923 140.977615,59.6642308 141.239154,59.8988462 L140.446077,59.8988462 C140.346846,59.6734615 140.311462,59.5026923 140.283769,59.2142308 L140.229923,58.5296154 C140.149154,57.4934615 139.869923,57.1788462 139.049923,57.1788462 L137.185308,57.1788462 L137.185308,59.8988462 Z" id="Fill-61"></path><path d="M145.028615,54.5125385 L143.911692,57.5294615 L146.181692,57.5294615 L145.028615,54.5125385 Z M143.730923,58.0071538 L143.020154,59.8986923 L142.407846,59.8986923 L144.730923,53.891 L145.362462,53.891 L147.730923,59.8986923 L147.109385,59.8986923 L146.370923,58.0071538 L143.730923,58.0071538 Z" id="Fill-62"></path><path d="M151.070154,56.7642308 C152.133231,56.7642308 152.601692,56.4042308 152.601692,55.5842308 C152.601692,55.1965385 152.466308,54.8726923 152.232462,54.6834615 C151.980154,54.4857692 151.647077,54.4042308 151.070154,54.4042308 L149.620154,54.4042308 L149.620154,56.7642308 L151.070154,56.7642308 Z M149.620154,59.8988462 L149.017077,59.8988462 L149.017077,53.8911538 L151.313231,53.8911538 C151.997846,53.8911538 152.376308,53.9988462 152.709385,54.2873077 C153.042462,54.5757692 153.204769,54.9988462 153.204769,55.5842308 C153.204769,56.1703846 153.042462,56.5926923 152.709385,56.8811538 C152.376308,57.1696154 151.997846,57.2773077 151.313231,57.2773077 L149.620154,57.2773077 L149.620154,59.8988462 Z" id="Fill-63"></path><polygon id="Fill-64" points="156.796923 59.8986154 156.229231 59.8986154 156.229231 57.2686154 153.941538 53.8909231 154.643846 53.8909231 156.517692 56.7370769 158.363846 53.8909231 159.056923 53.8909231 156.796923 57.2686154"></polygon><polygon id="Fill-65" points="0.555384615 40.4261538 9.38615385 40.4261538 9.38615385 1.15769231 0.555384615 1.15769231"></polygon><polygon id="Fill-66" points="15.85 40.4261538 24.6807692 40.4261538 24.6807692 1.15769231 15.85 1.15769231"></polygon><path d="M55.7226923,13.6978462 C54.8396154,9.93015385 51.955,7.75169231 47.775,7.75169231 C41.2996154,7.75169231 37.5903846,12.5209231 37.5903846,20.7632308 C37.5903846,28.9463077 41.2996154,33.8324615 47.5388462,33.8324615 C52.0734615,33.8324615 54.7819231,31.5955385 55.8419231,26.8855385 L65.2019231,26.8855385 C64.1419231,35.7747692 57.4896154,41.3101538 47.775,41.3101538 C36.1765385,41.3101538 28.7596154,33.3024615 28.7596154,20.7632308 C28.7596154,8.164 36.0596154,0.275538462 47.7157692,0.275538462 C57.195,0.275538462 63.6703846,5.33784615 64.7303846,13.6978462 L55.7226923,13.6978462 Z" id="Fill-67"></path><path d="M85.3546154,32.8906923 C89.0630769,32.8906923 91.0653846,31.2422308 91.0653846,28.1222308 C91.0653846,25.0014615 89.0630769,23.353 85.3546154,23.353 L77.0538462,23.353 L77.0538462,32.8906923 L85.3546154,32.8906923 Z M85.4715385,16.4068462 C88.6507692,16.4068462 90.2992308,15.1114615 90.2992308,12.5214615 C90.2992308,9.98915385 88.6507692,8.69376923 85.4715385,8.69376923 L77.0538462,8.69376923 L77.0538462,16.4068462 L85.4715385,16.4068462 Z M68.3992308,1.15838462 L84.3538462,1.15838462 C89.2984615,1.15838462 92.1253846,1.68838462 94.6576923,3.15992308 C97.4223077,4.80838462 99.1307692,7.86992308 99.1307692,11.1668462 C99.1307692,14.9345385 97.3653846,17.5837692 93.5976923,19.4091538 C98.13,21.5868462 100.073077,24.4714615 100.073077,29.0053077 C100.073077,32.7145385 98.6015385,35.893 96.0107692,37.8360769 C93.4784615,39.7783846 90.7107692,40.4260769 85.1184615,40.4260769 L68.3992308,40.4260769 L68.3992308,1.15838462 Z" id="Fill-68"></path><path d="M126.906615,13.4630769 L126.906615,12.8153846 C126.906615,9.51769231 124.315846,7.63384615 119.842,7.63384615 C115.662769,7.63384615 113.130462,9.16538462 113.130462,11.6376923 C113.130462,13.2861538 114.307385,14.4053846 116.722769,14.9930769 L124.670462,16.8184615 C129.026615,17.8776923 131.439692,18.9376923 133.323538,20.7038462 C135.325846,22.5292308 136.326615,25.0607692 136.326615,28.1807692 C136.326615,36.3046154 130.085846,41.31 119.902,41.31 C109.303538,41.31 103.180462,36.2469231 103.122769,27.4746154 L111.954308,27.4746154 C112.130462,31.9484615 114.662,33.9507692 120.018923,33.9507692 C124.551231,33.9507692 127.318923,32.3023077 127.318923,29.5346154 C127.318923,27.5923077 125.906615,26.2384615 123.079692,25.5307692 L115.955846,23.7653846 C111.775846,22.7646154 109.186615,21.6453846 107.419692,20.1153846 C105.418923,18.4669231 104.299692,15.5815385 104.299692,12.4030769 C104.299692,4.80846154 110.128154,0.275384615 120.078154,0.275384615 C126.435077,0.275384615 130.910462,2.15923077 133.442,5.86769231 C134.737385,7.81076923 135.385077,9.93 135.738154,13.4630769 L126.906615,13.4630769 Z" id="Fill-69"></path></g></g></g></svg> 